<?xml version="1.0"?>
<svg version="1.1" xmlns="http://www.w3.org/2000/svg" width="400" height="200" style="border: dashed 2px #aaa"><path fill="#0f52ba" d="M15.98,116.8l0-2.38l2.1-0.84l0-13.16l-2.1-0.84l0-2.38l6.44-0.14l2.66,0c4.284,0,6.804,2.24,6.804,5.88c0,4.704-2.884,7-7.98,7l-1.484,0l0,3.64l2.1,0.84l0,2.38l-8.54,0z M22.42,106.664l1.484,0c2.324,0,3.64-1.092,3.64-3.164c0-1.82-0.98-3.08-2.884-3.08l-2.24,0l0,6.244z M55.19428,114.42l0,2.38l-8.904,0l0-2.38l2.1-0.756l-0.672-2.044l-6.216,0l-0.7,2.016l2.184,0.784l0,2.38l-8.456,0l0-2.38l2.044-0.784l6.16-16.492l4.48-0.084l6.02,16.576z M46.79428,108.624l-2.1-6.636l-2.212,6.636l4.312,0z M58.26056,116.8l0-2.38l2.1-0.84l0-13.16l-2.1-0.84l0-2.38l6.44-0.14l2.66,0c4.284,0,6.804,2.24,6.804,5.88c0,4.704-2.884,7-7.98,7l-1.484,0l0,3.64l2.1,0.84l0,2.38l-8.54,0z M64.70056,106.664l1.484,0c2.324,0,3.64-1.092,3.64-3.164c0-1.82-0.98-3.08-2.884-3.08l-2.24,0l0,6.244z M90.02684,105.04l0,3.08l-5.656,0l0,5.32l5.012,0l0.644-2.296l2.52,0l0,5.656l-14.616,0l0-2.38l2.1-0.84l0-13.16l-2.1-0.84l0-2.38l6.44-0.14l7.84,0l0,5.404l-2.52,0l-0.7-2.044l-4.62,0l0,4.62l5.656,0z M109.38912,105.04l0,3.08l-5.656,0l0,5.32l5.012,0l0.644-2.296l2.52,0l0,5.656l-14.616,0l0-2.38l2.1-0.84l0-13.16l-2.1-0.84l0-2.38l6.44-0.14l7.84,0l0,5.404l-2.52,0l-0.7-2.044l-4.62,0l0,4.62l5.656,0z M120.4354,116.8l0-2.38l2.1-0.84l0-3.612l-5.124-9.632l-1.82-0.756l0-2.38l7.924-0.14l0,2.52l-1.428,0.588l2.8,6.02l2.968-5.992l-1.54-0.616l0-2.38l7.56-0.14l0,2.52l-1.932,0.756l-5.068,9.604l0,3.64l2.1,0.84l0,2.38l-8.54,0z M156.82168,114.42l0,2.38l-8.904,0l0-2.38l2.1-0.756l-0.672-2.044l-6.216,0l-0.7,2.016l2.184,0.784l0,2.38l-8.456,0l0-2.38l2.044-0.784l6.16-16.492l4.48-0.084l6.02,16.576z M148.42168,108.624l-2.1-6.636l-2.212,6.636l4.312,0z M159.88796,116.8l0-2.38l2.1-0.84l0-13.16l-2.1-0.84l0-2.38l8.68-0.14l0,2.52l-2.24,0.84l0,4.48l7.336,0l0-4.48l-2.24-0.84l0-2.38l8.68-0.14l0,2.52l-2.1,0.84l0,13.16l2.1,0.84l0,2.38l-8.68,0l0-2.38l2.24-0.84l0-5.32l-7.336,0l0,5.32l2.24,0.84l0,2.38l-8.68,0z"/><path fill="#" d=""/></svg>
