<?xml version="1.0"?>
<svg version="1.1" xmlns="http://www.w3.org/2000/svg" width="201" height="108" style="border: dashed 2px #aaa"><path fill="#0f52ba" d="M15.875,69l0-2.125l1.875-0.75l0-11.75l-1.875-0.75l0-2.125l5.75-0.125l2.375,0c3.825,0,6.075,2,6.075,5.25c0,4.2-2.575,6.25-7.125,6.25l-1.325,0l0,3.25l1.875,0.75l0,2.125l-7.625,0z M21.625,59.95l1.325,0c2.075,0,3.25-0.975,3.25-2.825c0-1.625-0.875-2.75-2.575-2.75l-2,0l0,5.575z M50.88775,66.875l0,2.125l-7.95,0l0-2.125l1.875-0.675l-0.6-1.825l-5.55,0l-0.625,1.8l1.95,0.7l0,2.125l-7.55,0l0-2.125l1.825-0.7l5.5-14.725l4-0.075l5.375,14.8z M43.38775,61.7l-1.875-5.925l-1.975,5.925l3.85,0z M53.6255,69l0-2.125l1.875-0.75l0-11.75l-1.875-0.75l0-2.125l5.75-0.125l2.375,0c3.825,0,6.075,2,6.075,5.25c0,4.2-2.575,6.25-7.125,6.25l-1.325,0l0,3.25l1.875,0.75l0,2.125l-7.625,0z M59.3755,59.95l1.325,0c2.075,0,3.25-0.975,3.25-2.825c0-1.625-0.875-2.75-2.575-2.75l-2,0l0,5.575z M81.98825,58.5l0,2.75l-5.05,0l0,4.75l4.475,0l0.575-2.05l2.25,0l0,5.05l-13.05,0l0-2.125l1.875-0.75l0-11.75l-1.875-0.75l0-2.125l5.75-0.125l7,0l0,4.825l-2.25,0l-0.625-1.825l-4.125,0l0,4.125l5.05,0z M99.276,58.5l0,2.75l-5.05,0l0,4.75l4.475,0l0.575-2.05l2.25,0l0,5.05l-13.05,0l0-2.125l1.875-0.75l0-11.75l-1.875-0.75l0-2.125l5.75-0.125l7,0l0,4.825l-2.25,0l-0.625-1.825l-4.125,0l0,4.125l5.05,0z M109.13875,69l0-2.125l1.875-0.75l0-3.225l-4.575-8.6l-1.625-0.675l0-2.125l7.075-0.125l0,2.25l-1.275,0.525l2.5,5.375l2.65-5.35l-1.375-0.55l0-2.125l6.75-0.125l0,2.25l-1.725,0.675l-4.525,8.575l0,3.25l1.875,0.75l0,2.125l-7.625,0z M141.6265,66.875l0,2.125l-7.95,0l0-2.125l1.875-0.675l-0.6-1.825l-5.55,0l-0.625,1.8l1.95,0.7l0,2.125l-7.55,0l0-2.125l1.825-0.7l5.5-14.725l4-0.075l5.375,14.8z M134.1265,61.7l-1.875-5.925l-1.975,5.925l3.85,0z M144.36425,69l0-2.125l1.875-0.75l0-11.75l-1.875-0.75l0-2.125l7.75-0.125l0,2.25l-2,0.75l0,4l6.55,0l0-4l-2-0.75l0-2.125l7.75-0.125l0,2.25l-1.875,0.75l0,11.75l1.875,0.75l0,2.125l-7.75,0l0-2.125l2-0.75l0-4.75l-6.55,0l0,4.75l2,0.75l0,2.125l-7.75,0z"/><path fill="#" d=""/></svg>
